<svg width="17" height="32" viewBox="0 0 17 32" fill="none" xmlns="http://www.w3.org/2000/svg">
<path d="M16.3541 2.69801C16.4984 2.54535 16.6112 2.36577 16.6861 2.16952C16.7609 1.97327 16.7964 1.76419 16.7905 1.55423C16.7845 1.34427 16.7373 1.13754 16.6514 0.945832C16.5656 0.754127 16.4429 0.581206 16.2902 0.436942C16.1375 0.292678 15.9579 0.179896 15.7617 0.105035C15.5654 0.0301738 15.3564 -0.00529984 15.1464 0.000639628C14.9364 0.0065791 14.7297 0.0538151 14.538 0.139651C14.3463 0.225486 14.1734 0.34824 14.0291 0.500905L0.437092 14.8925C0.156398 15.1894 0 15.5824 0 15.991C0 16.3996 0.156398 16.7927 0.437092 17.0896L14.0291 31.4827C14.1724 31.6387 14.3453 31.7647 14.5377 31.8533C14.7301 31.942 14.9382 31.9915 15.1499 31.999C15.3616 32.0065 15.5727 31.9719 15.771 31.8971C15.9692 31.8224 16.1506 31.709 16.3046 31.5636C16.4586 31.4181 16.5822 31.2435 16.6682 31.0499C16.7541 30.8563 16.8008 30.6475 16.8054 30.4358C16.81 30.224 16.7725 30.0134 16.695 29.8162C16.6176 29.619 16.5017 29.4392 16.3541 29.2872L3.79832 15.991L16.3541 2.69801Z" fill="black"/>
</svg>
